<svg width="62" height="14" viewBox="0 0 62 14" fill="none" xmlns="http://www.w3.org/2000/svg">
<g clip-path="url(#clip0_2391_2)">
<path d="M58.6786 12.0103C59.4924 12.0103 60.1895 11.7998 60.7704 11.3792C61.4378 10.8968 61.7801 10.1844 61.7963 9.24207C61.8182 7.91853 61.2075 6.96761 59.9644 6.38984C59.3621 6.1653 58.6483 5.9973 57.8236 5.8853C56.9988 5.77276 56.396 5.64407 56.0162 5.49761C55.4358 5.28491 55.1451 4.98768 55.1451 4.60645C55.1451 4.33184 55.2185 4.11537 55.3649 3.95868C55.5113 3.80145 55.7151 3.72284 55.9756 3.72284H60.3797L61.1695 1.74561H55.9756C55.1289 1.74561 54.4099 1.99545 53.8186 2.49407C53.1725 3.03253 52.8495 3.73684 52.8495 4.60645C52.8495 5.73938 53.3731 6.56376 54.4209 7.07961C55.0232 7.31545 55.8141 7.51576 56.7936 7.68161C57.773 7.84691 58.4639 8.02191 58.8656 8.20714C59.2944 8.40907 59.5064 8.74561 59.5007 9.21676C59.5059 9.49676 59.4299 9.71322 59.2725 9.86453C59.1261 9.97707 58.9281 10.0331 58.6786 10.0331L50.7248 10.0304L49.935 12.0076L58.6786 12.0103Z" fill="#FD8301"/>
<path d="M40.9122 12.818L46.1603 0.946533H48.8174L54.0661 12.818H40.9122ZM48.274 9.17422L47.4967 7.31276L46.7449 9.17476L48.274 9.17422Z" fill="#FD8301" stroke="#0C1016" stroke-width="3"/>
<path d="M36.5602 3.78163H40.1744C40.3479 3.78163 40.511 3.86025 40.6631 4.01748C40.8856 4.24202 40.9966 4.67063 40.9966 5.3044C40.9966 5.93278 40.8856 6.35925 40.6631 6.58378C40.511 6.74048 40.3479 6.81909 40.1744 6.81909H37.374L36.5602 8.85502V3.78163ZM36.5602 8.85502H40.1744C41.1242 8.85502 41.925 8.51848 42.5763 7.8454C43.1567 7.24555 43.4469 6.39855 43.4469 5.30494C43.4469 4.21078 43.1567 3.36109 42.5758 2.75532C41.9245 2.08763 41.1242 1.75378 40.1744 1.75378H34.1104V12.0104H36.5607L36.5602 8.85502Z" fill="#FD8301"/>
<path d="M13.5952 12.0379C13.4483 11.7137 13.3488 11.4305 13.2967 11.1887C13.2446 10.9464 13.1945 10.5345 13.1471 9.95348L4.80318 9.98255C4.2061 9.98255 3.68249 9.74994 3.23182 9.28417C2.71081 8.74571 2.4503 7.91863 2.4503 6.80186C2.4503 5.79278 2.71081 5.01848 3.23182 4.48001C3.68249 4.01478 4.2061 3.78163 4.80318 3.78163L12.251 3.77732C12.4854 3.29648 12.7095 2.93625 12.9231 2.69609C13.0617 2.54048 13.3357 2.23194 13.7447 1.76994L4.80318 1.75378C3.4298 1.75378 2.27108 2.24486 1.32701 3.22648C0.442336 4.1354 0 5.32702 0 6.80186C0 8.38386 0.442336 9.62878 1.32701 10.5377C2.27108 11.5193 3.4298 12.0104 4.80318 12.0104L13.5952 12.0373V12.0379Z" fill="white"/>
<path d="M32.7178 12.0104V1.75427H31.0078L26.1562 9.9152L27.2227 11.6905L30.43 6.43189V12.0104H32.7178Z" fill="#FD8301"/>
<path d="M16.6931 0.83727C18.19 0.772116 19.8379 0.824347 20.7237 1.74512C21.526 2.56896 21.576 4.16442 21.4911 5.77658C21.4713 6.15835 21.451 6.53473 21.451 6.88635C21.451 8.84096 20.9076 10.3212 19.8968 11.3599C18.8017 12.4977 17.459 13.07 15.8663 13.07H14.7102C14.4033 13.07 14.0714 13.0953 13.7291 13.1201L13.3264 13.1487C12.0239 13.2321 10.7646 13.1212 9.98151 12.3119C9.1505 11.453 9.06506 9.59265 9.10986 7.81412C9.11768 7.49481 9.12549 7.18196 9.12549 6.88635C9.12549 5.0475 9.66317 3.61735 10.6802 2.57327C11.7748 1.43496 13.1175 0.862578 14.7102 0.862578H15.8663C16.1232 0.862578 16.4029 0.849654 16.6931 0.83727Z" fill="white" stroke="#090C10" stroke-width="3"/>
<path d="M24.0153 12.0104V6.43189L25.7738 9.28412L26.8397 7.51743L23.4376 1.75427H21.7276V12.0104H24.0153Z" fill="white"/>
<path fill-rule="evenodd" clip-rule="evenodd" d="M19.1385 3.25281L16.7618 8.43901L14.015 5.60014L19.1385 3.25281Z" fill="#C74923"/>
<path fill-rule="evenodd" clip-rule="evenodd" d="M11.7434 10.8956L16.7619 8.43897L14.015 5.6001L11.7434 10.8956Z" fill="#1353A2"/>
<path d="M15.0185 7.40182C15.2228 7.61295 15.554 7.61295 15.7583 7.40182C15.9626 7.1907 15.9626 6.8484 15.7583 6.63728C15.554 6.42615 15.2228 6.42615 15.0185 6.63728C14.8143 6.8484 14.8143 7.1907 15.0185 7.40182Z" fill="white"/>
</g>
<defs>
<clipPath id="clip0_2391_2">
<rect width="62" height="14" fill="white"/>
</clipPath>
</defs>
</svg>
