<svg width="40" height="80" viewBox="0 0 40 80" fill="none" xmlns="http://www.w3.org/2000/svg">
<path fill-rule="evenodd" clip-rule="evenodd" d="M0 80C22.0914 80 40 62.0914 40 40C40 17.9086 19.5657 0 0 0V80Z" fill="#A6B7D4" fill-opacity="0.471045"/>
<path fill-rule="evenodd" clip-rule="evenodd" d="M11.5873 38.9505C11.0753 39.375 10.8193 39.7928 10.8193 40.2036C10.8193 40.6145 11.0859 41.0802 11.6192 41.6006L21.5576 51.6012C22.0715 52.1183 22.0798 52.9507 21.5763 53.478C21.0877 53.9896 20.2769 54.0083 19.7653 53.5197C19.7583 53.5131 19.7514 53.5064 19.7446 53.4996L7.85584 41.6237C7.07437 40.8431 7.07368 39.5768 7.85431 38.7953C7.85651 38.7931 7.85871 38.7909 7.86092 38.7887L19.9372 26.8116C20.4529 26.3002 21.2854 26.3036 21.7968 26.8193C21.8039 26.8264 21.8109 26.8336 21.8178 26.8409C22.3326 27.3843 22.3206 28.239 21.7908 28.7678L11.5873 38.9505Z" fill="white"/>
</svg>
